<svg id="Capa_1" enable-background="new 0 0 512 512" height="512" viewBox="0 0 512 512" width="512" xmlns="http://www.w3.org/2000/svg"><g><path d="m512 256c0 141.385-114.615 256-256 256s-256-114.615-256-256 114.615-256 256-256 256 114.615 256 256z" fill="#faa598"/><path d="m462.612 248.625c0 111.14-90.097 201.237-201.237 201.237s-201.238-90.096-201.238-201.237 90.097-201.237 201.238-201.237 201.237 90.097 201.237 201.237z" fill="#fbb3a8"/><path d="m188.197 254.64-16.224 30.42c-.023.044-.047.088-.071.131 21.401 27.816 20.875 67.765-3.171 95.118-27.326 31.084-74.676 34.131-105.76 6.805-27.353-24.046-32.995-63.598-15.336-93.928-.029-.04-.059-.08-.087-.121l-19.989-28.09c-1.82-2.558-1.642-6.032.431-8.39s5.495-2.98 8.265-1.503l30.421 16.224c.044.023.088.047.131.071 8.908-6.854 19.06-11.458 29.644-13.762l3.86-22.909c.47-2.792 2.799-4.893 5.625-5.075 2.825-.182 5.404 1.604 6.229 4.312l6.765 22.225c10.792.928 21.451 4.194 31.163 9.849.04-.029.08-.059.121-.087l28.09-19.989c2.558-1.82 6.032-1.642 8.39.431s2.98 5.498 1.503 8.268zm242.343-148.276 19.117-30.888c2.33-3.764 1.764-8.636-1.366-11.766s-8.002-3.696-11.766-1.366l-30.888 19.116c-19.438-14.332-43.463-22.803-69.466-22.803-64.713 0-117.173 52.46-117.173 117.173s52.46 117.173 117.173 117.173 117.173-52.46 117.173-117.173c-.001-26.004-8.471-50.028-22.804-69.466z" fill="#f76c57"/><path d="m88.175 160.636c0 11.249-9.119 20.368-20.368 20.368s-20.368-9.119-20.368-20.368 9.119-20.368 20.368-20.368 20.368 9.119 20.368 20.368zm297.07 236.092c-5.881 0-10.649 4.768-10.649 10.649s4.768 10.649 10.649 10.649 10.649-4.768 10.649-10.649-4.767-10.649-10.649-10.649zm-197.304-296.973c-5.881 0-10.649 4.768-10.649 10.649s4.768 10.649 10.649 10.649 10.649-4.768 10.649-10.649c.001-5.882-4.767-10.649-10.649-10.649z" fill="#f44545"/><path d="m86.354 169.067c-3.206 7.042-10.304 11.937-18.546 11.937-11.249 0-20.368-9.119-20.368-20.368 0-8.242 4.895-15.34 11.937-18.546-1.17 2.569-1.822 5.424-1.822 8.431 0 11.249 9.119 20.368 20.368 20.368 3.007 0 5.862-.652 8.431-1.822z" fill="#d63030"/><path d="m413.063 244.02c7.625-2.194 13.257 7.08 7.771 12.812-21.331 22.289-51.377 36.17-84.664 36.17-26.003 0-50.028-8.471-69.466-22.803l-30.636 18.96c-3.354 2.076-7.696 2.097-10.878-.233-4.109-3.008-5.096-8.56-2.507-12.743l19.117-30.888c-14.332-19.438-22.803-43.463-22.803-69.466 0-33.24 13.841-63.247 36.074-84.573 5.753-5.518 15.067.144 12.871 7.807-2.943 10.272-4.52 21.121-4.52 32.339-.001 64.564 52.611 117.175 117.175 117.174 11.265.001 22.157-1.589 32.466-4.556zm-235.714 124.578c-.029-.041-.058-.081-.088-.121 8.2-14.082 11.376-30.153 9.688-45.737-.499-4.602-6.766-5.619-8.658-1.394-3.203 7.154-7.596 13.931-13.197 20.043-26.971 29.434-72.981 32.395-103.502 6.661-6.356-5.359-11.593-11.537-15.692-18.243-2.404-3.933-8.466-2.129-8.375 2.48.308 15.65 5.49 31.164 15.386 44.076l-14.938 28.011c-1.334 2.501-1.13 5.635.745 7.76 2.296 2.603 6.123 2.994 8.874 1.036l25.807-18.364c10.085 6.173 21.254 9.715 32.569 10.688l6.695 21.996c.756 2.483 2.917 4.38 5.507 4.542 3.172.199 5.903-2.027 6.416-5.075l3.86-22.909c10.584-2.304 20.736-6.909 29.644-13.762.044.024.087.048.131.071l30.185 16.098c2.54 1.354 5.722 1.148 7.88-.756 2.643-2.332 3.039-6.217 1.051-9.011z" fill="#f44545"/><path d="m220.968 198.48-52.472-12.353c-4.778-1.125-8.155-5.389-8.155-10.297 0-4.909 3.377-9.173 8.155-10.298l52.472-12.353c14.607-3.438 28.601 7.644 28.601 22.65 0 15.007-13.994 26.089-28.601 22.651zm50.294 41.693 43.907-20.866c12.222-5.809 15.832-21.497 7.377-32.063-8.455-10.566-24.553-10.485-32.9.166l-29.987 38.262c-2.731 3.484-2.706 8.389.06 11.845s7.545 4.556 11.543 2.656zm-172.94 102.1c-8.646-.401-15.404 7.366-13.813 15.873l5.716 30.561c.521 2.783 2.887 4.842 5.715 4.973s5.375-1.701 6.15-4.424l8.517-29.901c2.372-8.323-3.639-16.681-12.285-17.082zm83.549-293.161c11.249 0 20.368-9.119 20.368-20.368s-9.119-20.367-20.368-20.367-20.368 9.119-20.368 20.368 9.119 20.367 20.368 20.367zm-35.1 291.1c-4.141-7.6-14.286-9.351-20.735-3.579-6.449 5.772-5.828 16.049 1.268 21.003l25.492 17.798c2.321 1.621 5.453 1.432 7.562-.456s2.643-4.979 1.289-7.465zm324.682 19.752c-11.249 0-20.368 9.119-20.368 20.368s9.119 20.368 20.368 20.368 20.368-9.119 20.368-20.368-9.119-20.368-20.368-20.368zm32.392-194.432-52.472-12.353c-14.607-3.438-28.601 7.644-28.601 22.65 0 15.006 13.994 26.089 28.601 22.65l52.472-12.353c4.778-1.125 8.155-5.389 8.155-10.297s-3.377-9.172-8.155-10.297zm-168.893 226.22c2.249-2.922-.696-6.975-4.17-5.739l-17.703 6.299c-2.448.871-5.008-.988-4.936-3.586l.136-4.931c.215-7.755-9.81-11.012-14.195-4.612l-2.788 4.07c-1.469 2.144-4.632 2.144-6.101 0l-10.62-15.501c-2.084-3.042-6.849-1.494-6.747 2.192l.52 18.783c.072 2.598-2.487 4.457-4.936 3.586l-4.648-1.654c-7.309-2.6-13.505 5.927-8.773 12.075l3.009 3.909c1.585 2.059.607 5.068-1.885 5.802l-18.024 5.31c-3.537 1.042-3.537 6.052 0 7.094l18.024 5.31c2.493.734 3.47 3.743 1.885 5.802l-3.009 3.909c-4.732 6.148 1.464 14.676 8.773 12.075l4.648-1.654c2.448-.871 5.008.989 4.936 3.586l-.52 18.783c-.102 3.686 4.663 5.234 6.747 2.192l10.62-15.501c1.469-2.144 4.632-2.144 6.101 0l2.788 4.07c4.385 6.4 14.41 3.143 14.195-4.612l-.136-4.931c-.072-2.597 2.487-4.457 4.936-3.586l17.703 6.299c3.474 1.236 6.419-2.817 4.17-5.739l-11.461-14.89c-1.585-2.059-.607-5.068 1.885-5.802l4.732-1.394c7.442-2.192 7.442-12.733 0-14.926l-4.732-1.394c-2.493-.734-3.47-3.743-1.885-5.802zm1.218-129.321c-15.006 0-26.089 13.994-22.65 28.601l12.353 52.473c1.125 4.778 5.389 8.155 10.297 8.155 4.909 0 9.173-3.377 10.297-8.155l12.353-52.473c3.439-14.606-7.644-28.601-22.65-28.601zm10.298-254.276c-1.125-4.778-5.389-8.155-10.298-8.155s-9.173 3.377-10.297 8.155l-12.353 52.472c-3.439 14.607 7.644 28.601 22.65 28.601 15.006 0 26.089-13.994 22.65-28.601z" fill="#f76c57"/><path d="m194.499 36.484c2.323 0 4.555-.389 6.634-1.105-2.752 7.991-10.336 13.733-19.262 13.733-11.249 0-20.368-9.119-20.368-20.368 0-8.926 5.742-16.51 13.733-19.262-.716 2.08-1.105 4.312-1.105 6.634.001 11.249 9.119 20.368 20.368 20.368zm289.582 351.588c-11.249 0-20.368-9.119-20.368-20.368 0-2.323.389-4.555 1.105-6.634-7.992 2.752-13.734 10.336-13.734 19.262 0 11.249 9.119 20.368 20.368 20.368 8.926 0 16.511-5.742 19.262-13.733-2.078.715-4.31 1.105-6.633 1.105z" fill="#fb5858"/><path d="m401.338 340.191c0 5.882-4.768 10.649-10.649 10.649s-10.649-4.768-10.649-10.649 4.768-10.649 10.649-10.649 10.649 4.768 10.649 10.649zm-279.56-141.082c0-5.882-4.768-10.649-10.649-10.649s-10.649 4.768-10.649 10.649 4.768 10.649 10.649 10.649 10.649-4.767 10.649-10.649zm-22.58 121.365c-5.321-4.678-13.427-4.156-18.105 1.165s-4.156 13.427 1.165 18.105 13.427 4.156 18.105-1.165 4.156-13.427-1.165-18.105zm-4.953-26.967c7.645-3.769 9.777-13.681 4.357-20.26l-19.47-23.631c-1.773-2.152-4.793-2.802-7.294-1.569s-3.825 4.024-3.198 6.741l6.884 29.835c1.915 8.306 11.076 12.652 18.721 8.884zm-47.923 27.424-29.292 8.916c-2.667.812-4.426 3.352-4.247 6.135.179 2.782 2.249 5.076 4.998 5.539l30.193 5.088c8.405 1.417 15.933-5.376 15.386-13.882s-8.884-14.278-17.038-11.796zm87.93 4.622c-2.782-2.446-7.02-2.173-9.466.609s-2.173 7.021.609 9.466c2.782 2.446 7.02 2.173 9.466-.609s2.174-7.02-.609-9.466zm72.864-7.938-30.193-5.088c-8.405-1.416-15.933 5.376-15.386 13.882.547 8.506 8.884 14.277 17.038 11.795l29.292-8.916c2.667-.812 4.426-3.352 4.247-6.134-.179-2.781-2.249-5.075-4.998-5.539zm81.663 80.165c-12.991 0-23.522 10.531-23.522 23.521 0 12.991 10.531 23.522 23.522 23.522s23.522-10.531 23.522-23.522c0-12.99-10.531-23.521-23.522-23.521zm-108.58-118.088c-1.233-2.501-4.024-3.825-6.741-3.198l-29.835 6.884c-8.305 1.916-12.652 11.077-8.883 18.722 3.768 7.645 13.681 9.777 20.259 4.357l23.631-19.47c2.152-1.774 2.802-4.794 1.569-7.295zm-52.212 1.75c2.446-2.782 2.173-7.021-.609-9.466-2.782-2.446-7.02-2.173-9.466.609s-2.173 7.021.609 9.466c2.782 2.446 7.021 2.174 9.466-.609z" fill="#fb5858"/><g fill="#f44545"><path d="m309.265 432.868c-4.039 7.137-11.7 11.954-20.485 11.954-12.991 0-23.522-10.531-23.522-23.522 0-8.786 4.817-16.447 11.954-20.485-1.933 3.416-3.036 7.363-3.036 11.567 0 12.991 10.531 23.522 23.522 23.522 4.204.001 8.151-1.103 11.567-3.036z"/><path d="m449.657 276.184c2.33 3.764 1.764 8.636-1.366 11.766s-8.002 3.696-11.766 1.366l-41.337-25.583c-11.507-7.122-13.364-23.112-3.795-32.681 9.569-9.569 25.559-7.712 32.681 3.795zm-172.504-188.258-41.337-25.583c-3.764-2.33-8.636-1.764-11.766 1.366s-3.696 8.002-1.366 11.766l25.583 41.337c7.122 11.507 23.112 13.364 32.681 3.795 9.568-9.569 7.712-25.559-3.795-32.681zm119.429-35.633c.707-4.37-1.684-8.652-5.775-10.342s-8.808-.343-11.39 3.252l-28.36 39.483c-7.895 10.991-3.475 26.47 9.032 31.637 12.508 5.166 26.562-2.683 28.725-16.042zm66.829 140.651-39.483-28.36c-10.991-7.895-26.47-3.475-31.636 9.032-5.166 12.508 2.683 26.562 16.041 28.725l47.988 7.769c4.37.708 8.652-1.684 10.342-5.775s.343-8.808-3.252-11.391zm-110.247-5.973c-5.881 0-10.649 4.768-10.649 10.649 0 5.882 4.768 10.649 10.649 10.649s10.649-4.768 10.649-10.649-4.768-10.649-10.649-10.649zm56.68-43.059c5.881 0 10.649-4.768 10.649-10.649s-4.768-10.649-10.649-10.649-10.649 4.768-10.649 10.649 4.768 10.649 10.649 10.649zm-97.088-13.782c-11.249 0-20.368 9.119-20.368 20.368s9.119 20.368 20.368 20.368 20.368-9.119 20.368-20.368-9.119-20.368-20.368-20.368z"/></g></g></svg>